<?xml version="1.0" standalone="no"?>
<!DOCTYPE svg PUBLIC "-//W3C//DTD SVG 20010904//EN"
 "http://www.w3.org/TR/2001/REC-SVG-20010904/DTD/svg10.dtd">
<svg version="1.0" xmlns="http://www.w3.org/2000/svg"
 width="2304.000000pt" height="2304.000000pt" viewBox="0 0 2304.000000 2304.000000"
 preserveAspectRatio="xMidYMid meet">
<metadata>
Created by potrace 1.14, written by Peter Selinger 2001-2017
</metadata>
<g transform="translate(0.000000,2304.000000) scale(0.100000,-0.100000)"
fill="#000000" stroke="none">
<path d="M11475 14929 c-16 -5 -41 -11 -55 -13 -43 -7 -156 -51 -170 -67 -3
-3 -21 -15 -40 -27 -20 -11 -46 -30 -59 -41 -13 -11 -26 -21 -31 -23 -15 -6
-112 -142 -139 -197 -36 -71 -68 -178 -76 -256 -4 -33 -8 -62 -11 -64 -2 -2
-399 -5 -881 -7 -483 -1 -900 -5 -928 -8 -185 -19 -292 -35 -420 -61 -16 -4
-37 -8 -45 -9 -9 -1 -21 -5 -28 -10 -6 -4 -12 -5 -12 -2 0 3 -12 1 -27 -5 -16
-6 -39 -13 -52 -15 -14 -3 -66 -21 -117 -40 -50 -18 -96 -34 -102 -34 -6 0
-12 -3 -14 -7 -1 -5 -28 -19 -58 -33 -30 -13 -62 -29 -70 -35 -8 -6 -44 -28
-80 -50 -36 -21 -67 -41 -70 -44 -3 -3 -32 -28 -64 -56 -95 -80 -246 -254
-246 -283 0 -6 -3 -12 -7 -14 -15 -6 -127 -218 -116 -218 3 0 1 -6 -5 -12 -14
-18 -60 -157 -84 -253 -41 -165 -40 -163 -54 -275 -3 -25 -7 -56 -9 -70 -17
-130 -24 -261 -26 -528 -1 -115 1 -214 5 -221 4 -6 4 -11 -1 -11 -9 0 -9 -200
0 -224 4 -9 3 -16 -1 -16 -4 0 -6 -145 -4 -322 3 -301 4 -337 2 -370 -3 -54
16 -310 34 -458 18 -144 62 -338 108 -475 20 -57 31 -86 79 -192 25 -56 118
-207 130 -211 5 -2 9 -9 9 -16 0 -12 153 -173 199 -209 20 -16 119 -82 186
-125 11 -6 31 -17 45 -23 13 -5 45 -20 70 -33 25 -12 50 -24 55 -26 6 -1 20
-6 33 -11 13 -5 35 -12 50 -15 15 -4 33 -11 40 -17 6 -5 12 -6 12 -2 0 4 7 2
15 -5 8 -7 15 -10 15 -6 0 3 10 2 23 -3 27 -10 202 -47 267 -56 25 -3 56 -8
70 -10 109 -16 484 -19 2745 -19 2229 0 2749 4 2776 20 3 2 28 6 55 9 27 3 56
7 64 9 8 1 33 6 55 11 76 15 110 23 110 25 0 1 8 3 17 5 47 9 174 50 179 58 3
5 8 8 10 7 10 -4 191 74 214 93 5 4 35 25 66 45 138 90 242 193 333 328 25 38
50 74 56 81 5 7 10 19 10 27 0 8 6 21 13 28 22 24 105 220 109 258 0 3 6 21
14 40 8 19 16 46 18 60 3 14 5 25 7 25 1 0 3 9 5 20 2 11 8 38 14 60 5 22 13
58 16 80 3 22 8 47 10 55 3 8 8 33 10 55 2 22 7 56 10 75 3 19 7 60 10 90 2
30 7 73 10 95 3 22 8 281 11 575 2 294 7 538 9 542 3 4 2 8 -3 8 -4 0 -9 145
-10 323 0 177 -4 352 -7 388 -13 159 -36 294 -71 434 -8 33 -17 69 -20 80 -24
102 -144 369 -198 440 -4 5 -29 39 -56 75 -42 56 -73 89 -198 208 -13 12 -27
22 -31 22 -4 1 -23 14 -42 30 -19 17 -40 30 -47 30 -7 0 -13 4 -13 9 0 23
-343 175 -442 197 -5 1 -9 2 -10 4 -2 1 -10 3 -18 5 -88 20 -158 36 -170 39
-13 3 -40 8 -130 21 -263 41 -339 43 -1276 44 l-762 1 1 353 1 352 -385 1
c-211 1 -397 -2 -414 -7z m2350 -1829 c0 -1 16 -4 35 -6 48 -4 105 -12 108
-15 1 -1 5 -2 10 -3 45 -12 92 -31 92 -38 0 -4 3 -7 8 -6 26 7 172 -118 172
-148 0 -8 4 -14 9 -14 5 0 11 -8 14 -17 3 -10 15 -45 27 -78 12 -33 23 -68 25
-78 2 -10 6 -26 9 -35 3 -9 8 -39 11 -67 4 -27 9 -68 11 -90 10 -78 18 -1507
9 -1600 -6 -66 -18 -146 -30 -195 -6 -24 -13 -59 -18 -84 -1 -6 -8 -17 -14
-24 -7 -7 -13 -20 -13 -28 0 -17 -39 -90 -80 -149 -33 -47 -103 -109 -159
-141 -43 -24 -151 -67 -151 -59 0 2 -12 0 -27 -6 -14 -5 -76 -12 -137 -15 -60
-3 -112 -6 -114 -9 -2 -2 -17 1 -33 5 -17 5 -31 5 -35 -1 -4 -6 -11 -6 -20 2
-8 6 -14 7 -14 2 0 -5 -20 -7 -48 -3 -26 3 -59 3 -72 0 -14 -4 -37 -3 -52 1
-16 4 -30 3 -34 -2 -4 -6 -11 -6 -20 2 -8 6 -14 7 -14 2 0 -5 -20 -7 -48 -3
-26 3 -59 3 -72 0 -14 -4 -37 -3 -52 1 -16 4 -30 3 -34 -2 -4 -6 -11 -6 -20 2
-8 6 -14 7 -14 2 0 -5 -20 -7 -48 -3 -27 3 -60 3 -74 -1 -14 -4 -31 -3 -38 1
-7 4 -27 4 -46 0 -19 -4 -36 -4 -39 0 -3 5 -17 5 -33 1 -15 -4 -39 -4 -54 0
-16 4 -30 3 -34 -2 -4 -6 -11 -6 -20 2 -8 6 -14 7 -14 2 0 -5 -20 -7 -48 -3
-26 3 -59 3 -72 0 -14 -3 -42 -3 -63 1 -20 3 -39 3 -42 -1 -2 -3 -21 -5 -42
-2 -21 2 -54 4 -73 5 l-35 2 0 1445 c-1 795 2 1447 6 1450 7 5 1554 5 1554 0z
m-2915 -1447 l0 -1443 -767 0 c-801 1 -814 2 -938 45 -181 63 -325 246 -365
465 -1 3 -5 23 -10 45 -21 91 -25 225 -25 945 0 652 6 897 20 921 2 3 6 16 9
30 27 131 81 239 149 298 10 9 28 24 39 33 30 26 168 80 209 83 20 1 40 4 45
7 5 2 29 6 54 7 25 2 46 4 47 5 1 1 347 2 768 2 l765 0 0 -1443z"/>
<path d="M4596 14240 c-2 -3 -3 -900 -2 -1995 1 -1094 0 -1997 -2 -2005 -3
-13 -164 -15 -1390 -14 -763 1 -1398 5 -1412 9 -14 3 -32 8 -40 10 -8 2 -16 4
-17 5 -2 2 -6 3 -10 4 -36 7 -119 62 -168 111 -66 66 -120 163 -131 236 -4 24
-8 706 -9 1514 -2 809 -6 1493 -9 1520 -4 28 -8 56 -8 63 -1 6 -5 12 -9 12 -4
0 -6 8 -4 18 3 20 -79 192 -110 231 -40 48 -131 133 -157 147 -16 8 -28 19
-28 24 0 6 -6 10 -14 10 -7 0 -33 11 -57 24 -39 21 -100 43 -180 63 -13 3
-208 6 -432 8 l-408 2 4 -1781 c2 -980 7 -1803 10 -1831 3 -27 9 -79 12 -115
10 -110 23 -229 31 -275 3 -16 7 -41 9 -55 8 -50 48 -195 74 -265 23 -61 92
-208 101 -215 4 -3 13 -16 20 -30 45 -86 150 -199 289 -308 16 -13 170 -101
174 -100 1 0 23 -9 49 -21 26 -11 52 -21 58 -21 5 0 18 -4 28 -10 19 -11 188
-56 242 -65 19 -3 42 -8 50 -10 8 -3 35 -7 60 -11 25 -3 56 -7 70 -9 119 -16
525 -19 2790 -19 2050 -1 2584 2 2583 12 -2 6 1 12 7 12 5 0 7 6 5 13 -10 26
-12 77 -3 77 5 0 6 5 2 12 -6 10 -9 185 -3 214 1 5 0 11 -1 14 -6 16 -4 120 3
120 4 0 4 7 -1 16 -5 8 -6 35 -2 60 4 24 5 46 2 49 -8 8 -8 115 1 115 4 0 3 8
-2 19 -6 10 -8 21 -6 23 6 6 7 93 2 131 -2 15 0 27 5 27 5 0 6 5 3 11 -10 15
-12 80 -3 86 5 2 5 9 2 15 -4 6 -6 32 -5 57 l1 46 -337 0 c-186 0 -345 1 -353
3 -13 3 -15 38 -15 245 1 133 4 247 8 254 4 6 4 14 0 16 -10 6 -10 608 0 623
3 6 3 14 0 18 -12 12 -9 556 2 556 7 0 7 3 0 8 -13 9 -14 225 0 234 7 5 7 8 0
8 -13 0 -13 143 0 152 7 5 7 8 0 8 -11 0 -14 598 -2 616 3 6 3 14 0 18 -12 11
-10 156 2 156 7 0 7 3 0 8 -13 10 -14 152 0 152 7 0 7 3 0 8 -14 10 -14 544 0
554 7 5 7 8 0 8 -6 0 -10 65 -9 177 0 98 -1 183 -3 188 -4 11 -1351 16 -1357
5z"/>
<path d="M16826 14231 c-3 -6 0 -5121 3 -5131 0 -3 508 -5 1128 -5 l1127 0 31
50 c40 62 76 124 112 193 15 28 31 52 35 52 4 0 8 5 8 10 0 6 37 73 83 150
112 190 122 207 153 268 16 28 32 52 36 52 4 0 8 4 8 10 0 5 45 87 101 182 56
95 110 189 121 208 75 130 102 176 110 181 6 3 8 8 6 10 -4 5 94 172 107 181
5 4 7 8 3 8 -5 0 78 147 99 175 5 6 17 28 28 50 11 22 23 44 28 50 12 16 107
178 107 182 0 2 16 29 35 59 19 30 35 57 35 60 0 3 15 29 34 59 19 29 32 56
29 59 -4 3 -2 6 4 6 5 0 18 18 28 40 10 22 21 40 24 40 4 0 12 12 18 28 12 27
26 52 102 177 23 37 41 69 41 70 0 2 31 56 69 120 39 64 73 125 76 135 4 11
11 20 16 20 5 0 9 5 9 10 0 6 11 27 23 48 13 20 35 58 49 83 45 80 53 93 66
107 6 7 12 17 12 22 0 5 22 45 50 89 27 45 46 81 42 81 -4 0 -2 4 4 8 12 8
194 321 194 333 0 5 5 9 10 9 6 0 10 4 10 9 0 5 20 42 45 83 25 40 54 92 64
114 11 23 24 45 30 48 8 5 11 -551 11 -1961 l0 -1969 393 2 c215 1 403 4 417
8 67 16 170 51 170 58 0 5 5 8 12 8 38 0 197 134 262 221 54 74 105 201 121
304 4 30 8 3078 5 4391 l0 151 -742 -2 c-409 -1 -754 -5 -768 -9 -14 -3 -38
-9 -55 -11 -16 -3 -55 -13 -85 -21 -30 -9 -59 -17 -65 -18 -5 -1 -21 -8 -35
-16 -14 -7 -27 -13 -30 -12 -9 3 -44 -10 -108 -39 -35 -16 -67 -29 -72 -29 -5
0 -10 -3 -12 -7 -1 -5 -28 -21 -58 -37 -70 -37 -213 -133 -264 -177 -51 -44
-215 -209 -215 -215 0 -3 -19 -28 -43 -56 -71 -82 -103 -121 -134 -163 -16
-22 -34 -46 -41 -52 -16 -17 -97 -141 -120 -183 -10 -19 -30 -53 -43 -75 -14
-23 -30 -50 -37 -60 -7 -11 -22 -38 -34 -60 -11 -22 -34 -59 -50 -83 -16 -24
-29 -47 -29 -51 0 -5 -10 -21 -22 -37 -12 -15 -23 -33 -24 -40 -1 -7 -11 -25
-22 -41 -33 -46 -182 -304 -182 -314 0 -5 -3 -9 -8 -9 -4 0 -16 -17 -27 -37
-11 -21 -41 -73 -67 -116 -27 -43 -48 -80 -48 -83 0 -2 -16 -28 -35 -58 -19
-30 -35 -57 -35 -60 0 -9 -65 -111 -73 -114 -4 -2 -5 -7 -2 -12 3 -4 -2 -13
-10 -20 -8 -7 -15 -18 -15 -25 0 -8 -3 -15 -7 -17 -10 -4 -42 -57 -50 -80 -3
-10 -10 -18 -15 -18 -5 0 -6 -4 -3 -10 3 -5 1 -10 -4 -10 -6 0 -11 -4 -11 -9
0 -10 -62 -116 -85 -146 -9 -11 -18 -30 -21 -42 -4 -13 -10 -23 -15 -23 -5 0
-9 -7 -9 -15 0 -8 -5 -15 -11 -15 -5 0 -8 -4 -5 -9 3 -5 -1 -14 -9 -21 -8 -7
-15 -19 -15 -26 0 -8 -4 -14 -9 -14 -5 0 -14 -12 -20 -27 -6 -16 -32 -62 -57
-103 -25 -41 -56 -93 -69 -115 -69 -121 -110 -191 -115 -195 -4 -3 -9 -12 -13
-20 -4 -8 -18 -33 -32 -55 -14 -22 -28 -47 -31 -55 -4 -8 -14 -23 -22 -32 -8
-10 -11 -18 -6 -18 5 0 4 -4 -1 -8 -10 -7 -79 -119 -118 -192 -11 -19 -24 -42
-31 -50 -6 -8 -20 -31 -30 -50 -11 -19 -31 -53 -45 -75 -14 -22 -24 -43 -23
-47 1 -5 -2 -8 -7 -8 -5 0 -14 -12 -20 -28 -6 -15 -19 -39 -29 -55 -18 -26
-18 44 -18 1938 1 1081 -1 1972 -4 1979 -4 10 -140 12 -688 12 -376 0 -684 -2
-686 -5z"/>
</g>
</svg>
